<?xml version="1.0" encoding="utf-8"?>
<!-- Generator: Adobe Illustrator 27.0.0, SVG Export Plug-In . SVG Version: 6.00 Build 0)  -->
<svg version="1.1" id="Info_x5F_point_x5F_Charger" xmlns="http://www.w3.org/2000/svg" xmlns:xlink="http://www.w3.org/1999/xlink"
	 x="0px" y="0px" viewBox="0 0 45 61.5" style="enable-background:new 0 0 45 61.5;" xml:space="preserve">
<style type="text/css">
	.st0{fill:#0A8276;}
	.st1{fill:#FFFFFF;}
</style>
<g>
	<path class="st0" d="M45,22.5C45,10.07,34.93,0,22.5,0C10.07,0,0,10.07,0,22.5c0,2.33,0.35,4.58,1.01,6.69
		c0.59,1.88,1.42,3.66,2.45,5.3l0,0l0.03,0.05c0.4,0.63,0.83,1.24,1.28,1.82L22.5,61.5l18.61-26.35h0C43.56,31.54,45,27.19,45,22.5z
		"/>
	<g>
		<path class="st1" d="M29.32,38.71h-4.66c-0.82,0-1.43-0.62-1.43-1.43v-0.75c3.02-0.15,5.87-1.25,8.28-3.22
			c3.17-2.69,4.99-6.61,4.99-10.73c0-7.71-6.28-13.99-13.99-13.99c-7.71,0-13.99,6.28-13.99,13.99c0,7.47,5.89,13.58,13.27,13.95
			v0.75c0,1.61,1.26,2.87,2.87,2.87h4.66c0.89,0,1.79,0.44,1.79,1.43h1.43C32.54,39.92,31.19,38.71,29.32,38.71z M9.95,22.57
			c0-6.92,5.63-12.55,12.55-12.55c6.92,0,12.55,5.63,12.55,12.55c0,3.71-1.63,7.22-4.47,9.63c-2.34,1.91-5.13,2.92-8.08,2.92
			C15.58,35.12,9.95,29.49,9.95,22.57z"/>
		<g>
			<path class="st1" d="M22.5,33.04c-5.74,0-10.4-4.67-10.4-10.4c0-5.74,4.67-10.4,10.4-10.4s10.4,4.67,10.4,10.4
				C32.9,28.38,28.24,33.04,22.5,33.04z M22.5,13.67c-4.94,0-8.97,4.02-8.97,8.97c0,4.94,4.02,8.97,8.97,8.97s8.97-4.02,8.97-8.97
				C31.47,17.7,27.44,13.67,22.5,13.67z"/>
		</g>
		<polygon class="st1" points="26.17,21.31 21.29,21.46 23.76,16.9 22.5,16.22 18.84,22.96 23.7,22.82 21.65,26.55 20.62,25.9 
			20.43,30.03 23.77,27.87 22.87,27.31 		"/>
	</g>
</g>
</svg>
