<?xml version="1.0" encoding="utf-8"?>
<!-- Generator: Adobe Illustrator 27.0.0, SVG Export Plug-In . SVG Version: 6.00 Build 0)  -->
<svg version="1.1" id="Info_x5F_point_x5F_Aircon" xmlns="http://www.w3.org/2000/svg" xmlns:xlink="http://www.w3.org/1999/xlink"
	 x="0px" y="0px" viewBox="0 0 45 61.5" style="enable-background:new 0 0 45 61.5;" xml:space="preserve">
<style type="text/css">
	.st0{fill:#053b35;}
	.st1{fill:#FFFFFF;}
</style>
<g>
	<path class="st0" d="M45,22.5C45,10.07,34.93,0,22.5,0C10.07,0,0,10.07,0,22.5c0,2.33,0.35,4.58,1.01,6.69
		c0.59,1.88,1.42,3.66,2.45,5.3l0,0l0.03,0.05c0.4,0.63,0.83,1.24,1.28,1.82L22.5,61.5l18.61-26.35h0C43.56,31.54,45,27.19,45,22.5z
		"/>
	<g>
		<rect x="21.82" y="29.95" class="st1" width="1.36" height="8.86"/>
		<path class="st1" d="M15,29.99c0.1,2.01-0.35,4.01-1.28,5.78c-0.51,0.95-1.16,1.81-1.92,2.57l0.96,0.97
			c0.86-0.85,1.59-1.82,2.17-2.89c1.06-1.99,1.55-4.24,1.44-6.49L15,29.99z"/>
		<path class="st1" d="M30,29.99l-1.36-0.07c-0.11,2.25,0.39,4.5,1.44,6.49c0.57,1.06,1.3,2.04,2.17,2.89l0.96-0.97
			c-0.77-0.76-1.41-1.62-1.92-2.56C30.34,33.99,29.9,31.99,30,29.99z"/>
		<path class="st1" d="M34.67,10.86H10.33c-1.56,0-2.83,1.27-2.83,2.83v9.34c0,1.56,1.27,2.83,2.83,2.83h24.31
			c1.58,0,2.86-1.28,2.86-2.86v-9.31C37.5,12.13,36.23,10.86,34.67,10.86z M36.14,23c0,0.83-0.67,1.5-1.5,1.5H10.33
			c-0.81,0-1.47-0.66-1.47-1.47v-9.34c0-0.81,0.66-1.47,1.47-1.47h24.34c0.81,0,1.47,0.66,1.47,1.47V23z"/>
		<polygon class="st1" points="11.59,23.13 12.95,23.13 12.95,20.41 32.05,20.41 32.05,23.13 33.41,23.13 33.41,19.04 11.59,19.04 
					"/>
		<circle class="st1" cx="32.73" cy="14.95" r="0.68"/>
	</g>
</g>
</svg>
