<?xml version="1.0" encoding="utf-8"?>
<!-- Generator: Adobe Illustrator 27.5.0, SVG Export Plug-In . SVG Version: 6.00 Build 0)  -->
<svg version="1.1" id="Menu_x5F_Aircon" xmlns="http://www.w3.org/2000/svg" xmlns:xlink="http://www.w3.org/1999/xlink" x="0px"
	 y="0px" viewBox="0 0 55 50" style="enable-background:new 0 0 55 50;" xml:space="preserve">
<style type="text/css">
	.st2{fill:none;}
	.st150{fill:#06534B;}
</style>
<rect class="st2" width="55" height="50"/>
<g>
	<rect x="26.59" y="31.5" class="st150" width="2" height="13"/>
	<path class="st150" d="M17.49,31.55c0.13,2.68-0.46,5.35-1.71,7.71c-0.68,1.26-1.54,2.42-2.57,3.42l1.28,1.3
		c1.15-1.14,2.13-2.43,2.9-3.86c1.41-2.66,2.07-5.65,1.92-8.66L17.49,31.55z"/>
	<path class="st150" d="M37.51,31.55l-1.82-0.09c-0.15,3.01,0.52,6,1.93,8.67c0.77,1.42,1.74,2.72,2.89,3.86l1.28-1.3
		c-1.02-1.01-1.89-2.16-2.56-3.42C37.97,36.89,37.38,34.22,37.51,31.55z"/>
	<path class="st150" d="M43.74,6.02H11.26c-2.08,0-3.78,1.69-3.78,3.78v12.47c0,2.08,1.69,3.78,3.78,3.78H43.7
		c2.11,0,3.82-1.71,3.82-3.82V9.8C47.52,7.72,45.83,6.02,43.74,6.02z M45.7,22.22c0,1.1-0.9,2-2,2H11.26
		c-1.08,0-1.96-0.88-1.96-1.96V9.8c0-1.08,0.88-1.96,1.96-1.96h32.49c1.08,0,1.96,0.88,1.96,1.96V22.22z"/>
	<polygon class="st150" points="12.94,22.4 14.76,22.4 14.76,18.76 40.24,18.76 40.24,22.4 42.06,22.4 42.06,16.94 12.94,16.94 	"/>
	<circle class="st150" cx="41.15" cy="11.48" r="0.91"/>
</g>
<g>
</g>
<g>
</g>
<g>
</g>
<g>
</g>
<g>
</g>
<g>
</g>
</svg>
