<?xml version="1.0" encoding="utf-8"?>
<!-- Generator: Adobe Illustrator 27.5.0, SVG Export Plug-In . SVG Version: 6.00 Build 0)  -->
<svg version="1.1" id="Menu_x5F_smart-lighting" xmlns="http://www.w3.org/2000/svg" xmlns:xlink="http://www.w3.org/1999/xlink"
	 x="0px" y="0px" viewBox="0 0 55 50" style="enable-background:new 0 0 55 50;" xml:space="preserve">
<style type="text/css">
	.st2{fill:none;}
	.st150{fill:#06534B;}
</style>
<rect class="st2" width="55" height="50"/>
<g>
	<rect x="43.88" y="19.54" class="st150" width="3.64" height="1.82"/>
	<rect x="39.76" y="9.04" transform="matrix(0.707 -0.7072 0.7072 0.707 5.1478 32.323)" class="st150" width="3.64" height="1.82"/>
	<rect x="30.23" y="4.07" class="st150" width="1.82" height="3.64"/>
	<rect x="19.7" y="8" transform="matrix(0.7071 -0.7071 0.7071 0.7071 -0.9052 17.4485)" class="st150" width="1.82" height="3.64"/>
	<path class="st150" d="M33.87,29.02l0.61-0.21c3.52-1.25,5.8-4.56,5.8-8.44c0-4.94-4.02-8.96-8.96-8.96c0,0-0.01,0-0.01,0
		c-2.73,0-5.28,1.22-6.98,3.35l-1.42-1.14c2.05-2.57,5.12-4.04,8.4-4.04c0,0,0.01,0,0.01,0c5.95,0,10.78,4.84,10.78,10.78
		c0,4.44-2.49,8.26-6.4,9.92v5.63H27.5V34.1h6.37L33.87,29.02z"/>
	<rect x="27.5" y="37.74" class="st150" width="8.19" height="1.82"/>
	<path class="st150" d="M7.48,19.54v22.75c0,2.01,1.63,3.64,3.64,3.64h10.92c2.01,0,3.64-1.63,3.64-3.64V19.54
		c0-2.01-1.63-3.64-3.64-3.64H11.12C9.11,15.9,7.48,17.53,7.48,19.54z M9.3,19.54c0-1,0.82-1.82,1.82-1.82h10.92
		c1,0,1.82,0.82,1.82,1.82v22.75c0,1-0.82,1.82-1.82,1.82H11.12c-1,0-1.82-0.82-1.82-1.82V19.54z"/>
	<rect x="15.67" y="24.09" class="st150" width="1.82" height="4.55"/>
	<path class="st150" d="M13.19,26.19l1.13,1.43c-0.88,0.69-1.38,1.73-1.38,2.84c0,2.01,1.63,3.64,3.64,3.64s3.64-1.63,3.64-3.64
		c0-1.11-0.5-2.15-1.38-2.84l1.13-1.43c1.31,1.04,2.07,2.6,2.07,4.27c0,3.01-2.45,5.46-5.46,5.46s-5.46-2.45-5.46-5.46
		C11.12,28.79,11.87,27.23,13.19,26.19z"/>
</g>
<g>
</g>
<g>
</g>
<g>
</g>
<g>
</g>
<g>
</g>
<g>
</g>
</svg>
