<?xml version="1.0" encoding="utf-8"?>
<!-- Generator: Adobe Illustrator 27.5.0, SVG Export Plug-In . SVG Version: 6.00 Build 0)  -->
<svg version="1.1" id="Menu_x5F_smart-tv" xmlns="http://www.w3.org/2000/svg" xmlns:xlink="http://www.w3.org/1999/xlink" x="0px"
	 y="0px" viewBox="0 0 55 50" style="enable-background:new 0 0 55 50;" xml:space="preserve">
<style type="text/css">
	.st2{fill:none;}
	.st150{fill:#06534B;}
</style>
<rect class="st2" width="55" height="50"/>
<g>
	<g>
		<path class="st150" d="M15.49,17.34H4.57c-2.01,0-3.64,1.63-3.64,3.64v22.75c0,2.01,1.63,3.64,3.64,3.64h10.92
			c2.01,0,3.64-1.63,3.64-3.64V20.98C19.13,18.97,17.5,17.34,15.49,17.34z M17.31,43.73c0,1-0.82,1.82-1.82,1.82H4.57
			c-1,0-1.82-0.82-1.82-1.82V20.98c0-1,0.82-1.82,1.82-1.82h10.92c1,0,1.82,0.82,1.82,1.82V43.73z"/>
		<rect x="9.12" y="25.53" class="st150" width="1.82" height="4.55"/>
		<path class="st150" d="M13.43,27.63l-1.13,1.43c0.88,0.69,1.38,1.73,1.38,2.84c0,2.01-1.63,3.64-3.64,3.64s-3.64-1.63-3.64-3.64
			c0-1.11,0.5-2.15,1.38-2.84l-1.13-1.43c-1.31,1.04-2.07,2.6-2.07,4.27c0,3.01,2.45,5.46,5.46,5.46s5.46-2.45,5.46-5.46
			C15.49,30.23,14.74,28.68,13.43,27.63z"/>
	</g>
	<g>
		<polygon class="st150" points="34.05,38.12 32.23,38.12 32.23,40.85 23.13,40.85 23.13,42.67 43.15,42.67 43.15,40.85 34.05,40.85 
					"/>
		
			<rect x="44.41" y="28.21" transform="matrix(0.7081 -0.7061 0.7061 0.7081 -6.8038 41.7889)" class="st150" width="5.45" height="1.82"/>
		
			<rect x="38.2" y="23.99" transform="matrix(0.7079 -0.7063 0.7063 0.7079 -4.8388 38.1055)" class="st150" width="10.91" height="1.82"/>
		<path class="st150" d="M14.03,15.49V6.27c0-1,0.82-1.82,1.82-1.82h34.58c1,0,1.82,0.82,1.82,1.82v26.39c0,1-0.82,1.82-1.82,1.82
			H20.99v1.82h29.44c2.01,0,3.64-1.63,3.64-3.64V6.27c0-2.01-1.63-3.64-3.64-3.64H15.85c-2.01,0-3.64,1.63-3.64,3.64v9.22H14.03z"/>
	</g>
</g>
<g>
</g>
<g>
</g>
<g>
</g>
<g>
</g>
<g>
</g>
<g>
</g>
</svg>
