<?xml version="1.0" encoding="utf-8"?>
<!-- Generator: Adobe Illustrator 27.0.0, SVG Export Plug-In . SVG Version: 6.00 Build 0)  -->
<svg version="1.1" id="Menu_x5F_heat-pump" xmlns="http://www.w3.org/2000/svg" xmlns:xlink="http://www.w3.org/1999/xlink" x="0px"
	 y="0px" viewBox="0 0 51.79 38.28" style="enable-background:new 0 0 51.79 38.28;" xml:space="preserve">
<style type="text/css">
	.st0{fill:#FFFFFF;}
</style>
<g>
	<path class="st0" d="M0,0v38.28h51.79V0H0z M49.54,36.03H2.25V2.25h47.29V36.03z"/>
	<rect x="5.63" y="11.26" class="st0" width="9.01" height="2.25"/>
	<rect x="5.63" y="18.02" class="st0" width="9.01" height="2.25"/>
	<rect x="5.63" y="24.77" class="st0" width="9.01" height="2.25"/>
	<path class="st0" d="M32.65,33.78c8.07,0,14.64-6.57,14.64-14.64c0-8.07-6.57-14.64-14.64-14.64c-8.07,0-14.64,6.57-14.64,14.64
		C18.02,27.21,24.58,33.78,32.65,33.78z M32.65,6.76c6.83,0,12.39,5.56,12.39,12.39s-5.56,12.39-12.39,12.39
		s-12.39-5.56-12.39-12.39S25.82,6.76,32.65,6.76z"/>
	<path class="st0" d="M28.61,21.09l-4.3,4.3l1.59,1.59l4.17-4.17c0.44,0.31,0.93,0.53,1.46,0.67v5.79h2.25v-5.79
		c0.3-0.08,0.58-0.18,0.85-0.32l3.82,3.82l1.59-1.59l-3.69-3.69c0.3-0.43,0.51-0.92,0.65-1.44h5.79v-2.25H37
		c-0.14-0.53-0.36-1.02-0.67-1.46l3.71-3.71l-1.59-1.59L34.6,15.1c-0.26-0.13-0.54-0.23-0.82-0.3V9.01h-2.25v5.79
		c-0.52,0.14-1.01,0.35-1.44,0.65l-4.19-4.19l-1.59,1.59l4.32,4.32c-0.13,0.27-0.24,0.55-0.32,0.85h-5.79v2.25h5.79
		C28.38,20.55,28.48,20.83,28.61,21.09z M32.65,16.89c1.24,0,2.25,1.01,2.25,2.25c0,1.24-1.01,2.25-2.25,2.25
		c-1.24,0-2.25-1.01-2.25-2.25C30.4,17.9,31.41,16.89,32.65,16.89z"/>
</g>
</svg>
