<?xml version="1.0" encoding="utf-8"?>
<!-- Generator: Adobe Illustrator 27.5.0, SVG Export Plug-In . SVG Version: 6.00 Build 0)  -->
<svg version="1.1" id="Menu_x5F_mowing-robot" xmlns="http://www.w3.org/2000/svg" xmlns:xlink="http://www.w3.org/1999/xlink"
	 x="0px" y="0px" viewBox="0 0 55 50" style="enable-background:new 0 0 55 50;" xml:space="preserve">
<style type="text/css">
	.st2{fill:none;}
	.st0{fill:#FFFFFF;}
</style>
<rect class="st2" width="55" height="50"/>
<g>
	<path class="st0" d="M45.23,16.04l-29.16-3.54c-1.45-0.18-2.88,0.23-4.03,1.14c-1.18,0.93-1.92,2.27-2.09,3.77l-0.01,1.94h2.01
		v-1.77c0.12-0.95,0.59-1.79,1.33-2.37c0.73-0.58,1.64-0.83,2.55-0.72l29.17,3.54c1.76,0.21,3.08,1.76,3.08,3.6v8.77l-25.09-0.02
		l0,2.01l27.1,0.02V21.63C50.08,18.77,48,16.37,45.23,16.04z"/>
	<path class="st0" d="M12.95,21.15c-4.43,0-8.03,3.68-8.03,8.2s3.6,8.2,8.03,8.2s8.03-3.68,8.03-8.2S17.37,21.15,12.95,21.15z
		 M12.95,35.54c-3.32,0-6.02-2.78-6.02-6.19s2.7-6.19,6.02-6.19s6.02,2.78,6.02,6.19S16.27,35.54,12.95,35.54z"/>
	<rect x="31.01" y="34.52" class="st0" width="17.06" height="2.01"/>
</g>
<g>
</g>
<g>
</g>
<g>
</g>
<g>
</g>
<g>
</g>
<g>
</g>
</svg>
