<?xml version="1.0" encoding="utf-8"?>
<!-- Generator: Adobe Illustrator 27.5.0, SVG Export Plug-In . SVG Version: 6.00 Build 0)  -->
<svg version="1.1" id="Menu_x5F_photovoltaic" xmlns="http://www.w3.org/2000/svg" xmlns:xlink="http://www.w3.org/1999/xlink"
	 x="0px" y="0px" viewBox="0 0 55 50" style="enable-background:new 0 0 55 50;" xml:space="preserve">
<style type="text/css">
	.st2{fill:none;}
	.st0{fill:#FFFFFF;}
</style>
<rect class="st2" width="55" height="50"/>
<g>
	<g>
		<polygon class="st0" points="34.43,33.03 32.61,33.03 32.61,41.22 19.87,41.22 19.87,43.04 47.17,43.04 47.17,41.22 34.43,41.22 
					"/>
		<path class="st0" d="M20.1,4.82l-7.82,26.39h35.59l6.84-26.39H20.1z M27.5,21.2l2.12-6.37h10.12l-1.89,6.37H27.5z M37.32,23.02
			l-1.89,6.37H24.77l2.12-6.37H37.32z M25.58,21.2h-8.44l1.89-6.37h8.67L25.58,21.2z M30.23,13.01l2.12-6.37h9.82l-1.89,6.37H30.23z
			 M41.64,14.83h8.59l-1.65,6.37h-8.83L41.64,14.83z M42.18,13.01l1.89-6.37h8.29l-1.65,6.37H42.18z M21.46,6.64h8.98l-2.12,6.37
			h-8.74L21.46,6.64z M16.6,23.02h8.37l-2.12,6.37h-8.14L16.6,23.02z M46.46,29.39h-9.13l1.89-6.37h8.9L46.46,29.39z"/>
	</g>
	<g>
		<polygon class="st0" points="5.33,17.25 5.33,19.07 13.98,19.07 14.52,17.25 		"/>
		<path class="st0" d="M16.27,33.03v9.18c0,0.63-0.6,1.15-1.33,1.15H3.44c-0.73,0-1.33-0.51-1.33-1.15v-18.4
			c0-0.63,0.6-1.15,1.33-1.15h9.47l0.54-1.82H3.44c-1.74,0-3.15,1.33-3.15,2.97v18.4c0,1.64,1.41,2.97,3.15,2.97h11.5
			c1.74,0,3.15-1.33,3.15-2.97v-9.18H16.27z"/>
		<path class="st0" d="M12.63,33.03v1.55H5.75v-3.13h4.56l0.6-2.01H5.75v-3.13h6.08l0.54-1.82H3.93v17.05h10.52v-8.51H12.63z
			 M12.63,39.72H5.75v-3.13h6.88V39.72z"/>
	</g>
</g>
<g>
</g>
<g>
</g>
<g>
</g>
<g>
</g>
<g>
</g>
<g>
</g>
</svg>
