<?xml version="1.0" encoding="utf-8"?>
<!-- Generator: Adobe Illustrator 24.3.0, SVG Export Plug-In . SVG Version: 6.00 Build 0)  -->
<svg version="1.1" xmlns="http://www.w3.org/2000/svg" xmlns:xlink="http://www.w3.org/1999/xlink" x="0px" y="0px"
	 viewBox="0 0 36.2 36.2" style="enable-background:new 0 0 36.2 36.2;" xml:space="preserve">
<style type="text/css">
	.st410{fill:#AC387B;stroke:#FFFFFF;stroke-width:1.2347;stroke-miterlimit:10;}
	.st411{fill:#FFFFFF;}
</style>
<g id="Ebene_1">
</g>
<g id="UI_3D">
	<circle class="st410" cx="18.1" cy="18.1" r="17.5"/>
	<g>
		<path class="st411" d="M13.5,23.7c0,0,0.6,0.7,0.5,1.5c0,0.2-0.2,0.5-0.4,0.8c-0.2,0.3-0.4,0.7-0.5,1c0,0,0,0.1,0,0.1l-0.8,0.3
			l1.5,1.4l0.4-2l-0.7,0.2c0.1-0.2,0.2-0.5,0.4-0.7c0.2-0.3,0.4-0.6,0.4-0.9c0.2-1.1-0.6-1.9-0.6-1.9L13.5,23.7L13.5,23.7z"/>
		<path class="st411" d="M28.7,15.4c-0.3,0-0.6-0.2-0.6-0.6c0-0.3,0.2-0.6,0.6-0.6c0.3,0,0.6,0.2,0.6,0.6C29.3,15.1,29,15.4,28.7,15.4
			L28.7,15.4z M27,15.4c-0.3,0-0.6-0.2-0.6-0.6c0-0.3,0.2-0.6,0.6-0.6c0.3,0,0.6,0.2,0.6,0.6C27.6,15.1,27.3,15.4,27,15.4L27,15.4z
			 M19.7,17.6h-3.2v-0.4h3.2V17.6L19.7,17.6z M29.2,12.4h-2.7v0.4c0,1.3-1.1,2.4-2.4,2.4H12.2c-1.3,0-2.4-1.1-2.4-2.4v-0.4H7
			c-0.6,0-1.1,0.5-1.1,1.1v6.8c0,1.2,1,2.2,2.2,2.2h1.6v-2.8c0-0.4,0.3-0.8,0.8-0.8h15.2c0.4,0,0.8,0.3,0.8,0.8v2.8h1.6
			c1.2,0,2.2-1,2.2-2.2v-6.8C30.3,12.9,29.8,12.4,29.2,12.4L29.2,12.4z"/>
		<path class="st411" d="M25.3,20.8H10.9v-0.4h14.5V20.8L25.3,20.8z M25.3,21.8H10.9v-0.4h14.5V21.8L25.3,21.8z M25.7,19.3H10.5
			c-0.2,0-0.3,0.2-0.3,0.3v2.8H26v-2.8C26,19.5,25.9,19.3,25.7,19.3L25.7,19.3z"/>
		<path class="st411" d="M12.2,14.7H24c1.1,0,2-0.9,2-2v-0.4H10.2v0.4C10.2,13.8,11.1,14.7,12.2,14.7L12.2,14.7z"/>
		<path class="st411" d="M23,23.7c0,0,0.6,0.7,0.5,1.5c0,0.2-0.2,0.5-0.4,0.8c-0.2,0.3-0.4,0.7-0.5,1c0,0,0,0.1,0,0.1l-0.8,0.3
			l1.5,1.4l0.4-2L23,26.9c0.1-0.2,0.2-0.5,0.4-0.7c0.2-0.3,0.4-0.6,0.4-0.9c0.2-1.1-0.6-1.9-0.6-1.9L23,23.7L23,23.7z"/>
		<path class="st411" d="M18.2,23.7c0,0,0.9,1,0.7,2.2c-0.1,0.3-0.3,0.7-0.6,1.2c-0.3,0.5-0.6,0.9-0.6,1.4c-0.1,0.3-0.1,0.6,0,0.9
			l-0.8,0.4l1.7,1.2l0.2-2.1l-0.7,0.3c0-0.2,0-0.4,0-0.6c0.1-0.4,0.3-0.8,0.6-1.2c0.3-0.5,0.5-0.9,0.6-1.3c0.3-1.5-0.8-2.6-0.8-2.6
			L18.2,23.7L18.2,23.7z"/>
	</g>
</g>
</svg>
