<?xml version="1.0" encoding="utf-8"?>
<!-- Generator: Adobe Illustrator 27.5.0, SVG Export Plug-In . SVG Version: 6.00 Build 0)  -->
<svg version="1.1" id="Info_x5F_point_x5F_Smart-licgting"
	 xmlns="http://www.w3.org/2000/svg" xmlns:xlink="http://www.w3.org/1999/xlink" x="0px" y="0px" viewBox="0 0 45 61.5"
	 style="enable-background:new 0 0 45 61.5;" xml:space="preserve">
<style type="text/css">
	.st0{fill:#053b35;}
	.st1{fill:#FFFFFF;}
</style>
<g>
	<path class="st0" d="M45,22.5C45,10.07,34.93,0,22.5,0C10.07,0,0,10.07,0,22.5c0,2.33,0.35,4.58,1.01,6.69
		c0.59,1.88,1.42,3.66,2.45,5.3l0,0l0.03,0.05c0.4,0.63,0.83,1.24,1.28,1.82L22.5,61.5l18.61-26.35h0C43.56,31.54,45,27.19,45,22.5z
		"/>
	<g>
		<rect x="37.24" y="19.75" class="st1" width="2.61" height="1.3"/>
		
			<rect x="34.29" y="12.22" transform="matrix(0.707 -0.7072 0.7072 0.707 1.3226 28.9446)" class="st1" width="2.61" height="1.3"/>
		<rect x="27.46" y="8.66" class="st1" width="1.3" height="2.61"/>
		
			<rect x="19.91" y="11.48" transform="matrix(0.7071 -0.7071 0.7071 0.7071 -3.0155 18.283)" class="st1" width="1.3" height="2.61"/>
		<path class="st1" d="M30.06,26.55l0.43-0.15c2.52-0.89,4.15-3.27,4.15-6.05c0-3.54-2.88-6.42-6.42-6.42c0,0,0,0-0.01,0
			c-1.96,0-3.78,0.88-5,2.4l-1.02-0.82c1.47-1.84,3.67-2.89,6.02-2.89c0,0,0,0,0.01,0c4.26,0,7.73,3.47,7.73,7.73
			c0,3.18-1.79,5.92-4.59,7.11v4.04H25.5v-1.3h4.57L30.06,26.55z"/>
		<rect x="25.5" y="32.79" class="st1" width="5.87" height="1.3"/>
		<path class="st1" d="M11.15,19.75v16.3c0,1.44,1.17,2.61,2.61,2.61h7.83c1.44,0,2.61-1.17,2.61-2.61v-16.3
			c0-1.44-1.17-2.61-2.61-2.61h-7.83C12.32,17.14,11.15,18.31,11.15,19.75z M12.46,19.75c0-0.72,0.59-1.3,1.3-1.3h7.83
			c0.72,0,1.3,0.58,1.3,1.3v16.3c0,0.72-0.59,1.3-1.3,1.3h-7.83c-0.72,0-1.3-0.59-1.3-1.3V19.75z"/>
		<rect x="17.02" y="23.01" class="st1" width="1.3" height="3.26"/>
		<path class="st1" d="M15.24,24.52l0.81,1.02c-0.63,0.5-0.99,1.24-0.99,2.04c0,1.44,1.17,2.61,2.61,2.61
			c1.44,0,2.61-1.17,2.61-2.61c0-0.8-0.36-1.54-0.99-2.04l0.81-1.02c0.94,0.74,1.48,1.86,1.48,3.06c0,2.16-1.76,3.91-3.91,3.91
			s-3.91-1.76-3.91-3.91C13.76,26.38,14.3,25.26,15.24,24.52z"/>
	</g>
</g>
</svg>
