<svg xmlns="http://www.w3.org/2000/svg" width="50px" xmlns:xlink="http://www.w3.org/1999/xlink" version="1.1" x="0px" y="0px" viewBox="0 0 58.7 74.8" style="enable-background:new 0 0 58.7 74.8;" xml:space="preserve">
<style type="text/css">
	.room1-residential-aircon-svg__st110{fill:#FFFFFF;}
	.room1-residential-aircon-svg__st111{fill:#822061;stroke:#FFFFFF;stroke-width:2;stroke-miterlimit:10;}
</style>
<g id="Ebene_1">
</g>
<g id="UI_3D">
	<polygon class="room1-residential-aircon-svg__st110" points="16.9,55.9 29.3,74.8 41.8,55.9  "/>
	<circle class="room1-residential-aircon-svg__st111" cx="29.3" cy="29.3" r="28.3"/>
	<g>
		<path class="room1-residential-aircon-svg__st110" d="M21.8,38.4c0,0,1,1.1,0.8,2.5c-0.1,0.3-0.3,0.8-0.6,1.3c-0.3,0.5-0.6,1.1-0.7,1.6c0,0,0,0.1,0,0.1l-1.3,0.4    l2.5,2.3l0.7-3.3L22,43.6c0.1-0.3,0.4-0.7,0.6-1.1c0.3-0.5,0.6-1,0.7-1.5c0.3-1.7-0.9-3-1-3.1L21.8,38.4L21.8,38.4z"/>
		<path class="room1-residential-aircon-svg__st110" d="M46.5,24.9c-0.5,0-0.9-0.4-0.9-0.9c0-0.5,0.4-0.9,0.9-0.9c0.5,0,0.9,0.4,0.9,0.9C47.4,24.5,47,24.9,46.5,24.9    L46.5,24.9z M43.8,24.9c-0.5,0-0.9-0.4-0.9-0.9c0-0.5,0.4-0.9,0.9-0.9c0.5,0,0.9,0.4,0.9,0.9C44.7,24.5,44.3,24.9,43.8,24.9    L43.8,24.9z M31.9,28.5h-5.2v-0.7h5.2V28.5L31.9,28.5z M47.3,20h-4.4v0.6c0,2.2-1.8,3.9-3.9,3.9H19.8c-2.2,0-3.9-1.8-3.9-3.9V20    h-4.4c-1,0-1.8,0.8-1.8,1.8v10.9c0,2,1.6,3.6,3.6,3.6h2.6v-4.5c0-0.7,0.6-1.2,1.2-1.2h24.6c0.7,0,1.2,0.6,1.2,1.2v4.5h2.6    c2,0,3.6-1.6,3.6-3.6V21.8C49.1,20.8,48.3,20,47.3,20L47.3,20z"/>
		<path class="room1-residential-aircon-svg__st110" d="M41.1,33.6H17.6v-0.7h23.4V33.6L41.1,33.6z M41.1,35.3H17.6v-0.7h23.4V35.3L41.1,35.3z M41.6,31.3H17.1    c-0.3,0-0.6,0.2-0.6,0.6v4.5h25.7v-4.5C42.2,31.5,41.9,31.3,41.6,31.3L41.6,31.3z"/>
		<path class="room1-residential-aircon-svg__st110" d="M19.8,23.9h19.2c1.8,0,3.3-1.5,3.3-3.3V20H16.5v0.6C16.5,22.4,18,23.9,19.8,23.9L19.8,23.9z"/>
		<path class="room1-residential-aircon-svg__st110" d="M37.2,38.4c0,0,1,1.1,0.8,2.5c-0.1,0.3-0.3,0.8-0.6,1.3c-0.3,0.5-0.6,1.1-0.7,1.6c0,0,0,0.1,0,0.1l-1.3,0.4    l2.5,2.3l0.7-3.3l-1.2,0.4c0.1-0.3,0.4-0.7,0.6-1.1c0.3-0.5,0.6-1,0.7-1.5c0.3-1.7-0.9-3-1-3.1L37.2,38.4L37.2,38.4z"/>
		<path class="room1-residential-aircon-svg__st110" d="M29.4,38.4c0,0,1.5,1.6,1.1,3.6c-0.1,0.5-0.5,1.2-0.9,1.9c-0.4,0.7-0.9,1.5-1,2.2c-0.1,0.5-0.1,1,0,1.4    l-1.2,0.6l2.8,1.9l0.3-3.4l-1.2,0.6c0-0.3,0-0.7,0-1c0.1-0.6,0.5-1.3,0.9-2c0.4-0.7,0.9-1.5,1-2.1c0.5-2.4-1.2-4.2-1.3-4.2    L29.4,38.4L29.4,38.4z"/>
	</g>
</g>
</svg>