<?xml version="1.0" encoding="utf-8"?>
<!-- Generator: Adobe Illustrator 27.0.0, SVG Export Plug-In . SVG Version: 6.00 Build 0)  -->
<svg version="1.1" id="Info_x5F_point_x5F_Kitchen" xmlns="http://www.w3.org/2000/svg" xmlns:xlink="http://www.w3.org/1999/xlink"
	 x="0px" y="0px" viewBox="0 0 45 61.5" style="enable-background:new 0 0 45 61.5;" xml:space="preserve">
<style type="text/css">
	.st18{fill:#053b35;}
	.st0{fill:#FFFFFF;}
</style>
<g>
	<path class="st18" d="M45,22.5C45,10.07,34.93,0,22.5,0C10.07,0,0,10.07,0,22.5c0,2.33,0.35,4.58,1.01,6.69
		c0.59,1.88,1.42,3.66,2.45,5.3l0,0l0.03,0.05c0.4,0.63,0.83,1.24,1.28,1.82L22.5,61.5l18.61-26.35h0C43.56,31.54,45,27.19,45,22.5z
		"/>
	<g>
		<circle class="st0" cx="10.42" cy="24.88" r="0.64"/>
		<circle class="st0" cx="12.91" cy="24.88" r="0.64"/>
		<circle class="st0" cx="15.63" cy="24.88" r="0.64"/>
		<path class="st0" d="M37.45,34.44H26.72V10.29h10.73V34.44z M27.86,33.3h8.45V11.43h-8.45V33.3z"/>
		<rect x="29.12" y="23.68" class="st0" width="5.94" height="1.14"/>
		<rect x="19.55" y="25.46" class="st0" width="5.91" height="1.14"/>
		<rect x="19.55" y="29.38" class="st0" width="5.91" height="1.14"/>
		<path class="st0" d="M27.86,34.44H17.14V21.8h10.73V34.44z M18.28,33.3h8.45V22.94h-8.45V33.3z"/>
		<path class="st0" d="M18.28,34.44H7.55V21.8h10.73V34.44z M8.69,33.3h8.45V22.94H8.69V33.3z"/>
		<path class="st0" d="M16.09,32.05H9.73V26.8h6.36V32.05z M10.55,31.24h4.73v-3.62h-4.73V31.24z"/>
		<path class="st0" d="M18.28,17.76H7.55v-2.37l2.54-2.11v-2.99h5.65v2.99l2.54,2.11V17.76z M8.69,16.62h8.45v-0.7l-2.54-2.11v-2.38
			h-3.37v2.38l-2.54,2.11V16.62z"/>
	</g>
</g>
</svg>
