<?xml version="1.0" encoding="utf-8"?>
<!-- Generator: Adobe Illustrator 27.5.0, SVG Export Plug-In . SVG Version: 6.00 Build 0)  -->
<svg version="1.1" id="Menu_x5F_charger" xmlns="http://www.w3.org/2000/svg" xmlns:xlink="http://www.w3.org/1999/xlink" x="0px"
	 y="0px" viewBox="0 0 55 50" style="enable-background:new 0 0 55 50;" xml:space="preserve">
<style type="text/css">
	.st2{fill:none;}
	.st150{fill:#06534B;}
</style>
<rect class="st2" width="55" height="50"/>
<path class="st150" d="M45.7,15.9v-3.64h-7.28v3.64H36.6v8.19h4.55v8.1c0,6.55-5.46,11.92-12.1,11.92h-1.18
	c-6.73,0-12.19-5.37-12.19-11.92v-8.1h6.37v-2.73h5.46v-3.64h3.64V15.9H27.5v-3.64h3.64v-1.82H27.5V6.8h-5.46V4.07H7.48v20.02h6.37
	v8.1c0,7.55,6.28,13.74,13.92,13.74h1.18c7.73,0,14.01-6.19,14.01-13.74v-8.1h4.55V15.9H45.7z M25.68,8.62v10.92h-3.64V8.62H25.68z
	 M9.3,5.89h10.92v16.38H9.3V5.89z M40.24,14.08h3.64v1.82h-3.64V14.08z M45.7,22.27h-7.28v-4.55h7.28V22.27z"/>
<g>
</g>
<g>
</g>
<g>
</g>
<g>
</g>
<g>
</g>
<g>
</g>
</svg>
