<?xml version="1.0" encoding="utf-8"?>
<!-- Generator: Adobe Illustrator 27.5.0, SVG Export Plug-In . SVG Version: 6.00 Build 0)  -->
<svg version="1.1" id="Menu_x5F_kitchen" xmlns="http://www.w3.org/2000/svg" xmlns:xlink="http://www.w3.org/1999/xlink" x="0px"
	 y="0px" viewBox="0 0 55 50" style="enable-background:new 0 0 55 50;" xml:space="preserve">
<style type="text/css">
	.st2{fill:none;}
	.st150{fill:#06534B;}
</style>
<rect class="st2" width="55" height="50"/>
<g>
	<circle class="st150" cx="8.39" cy="28.98" r="1.01"/>
	<circle class="st150" cx="12.33" cy="28.98" r="1.01"/>
	<circle class="st150" cx="16.63" cy="28.98" r="1.01"/>
	<path class="st150" d="M51.15,44.1H34.18V5.9h16.97V44.1z M35.99,42.3h13.36V7.7H35.99V42.3z"/>
	<rect x="37.97" y="27.07" class="st150" width="9.4" height="1.81"/>
	<rect x="22.83" y="29.89" class="st150" width="9.34" height="1.81"/>
	<rect x="22.83" y="36.1" class="st150" width="9.34" height="1.81"/>
	<path class="st150" d="M35.99,44.1H19.01V24.1h16.97V44.1z M20.82,42.3h13.36V25.9H20.82V42.3z"/>
	<path class="st150" d="M20.82,44.1H3.85V24.1h16.97V44.1z M5.65,42.3h13.36V25.9H5.65V42.3z"/>
	<path class="st150" d="M17.36,40.32H7.3v-8.31h10.06V40.32z M8.59,39.03h7.48V33.3H8.59V39.03z"/>
	<path class="st150" d="M20.82,17.71H3.85v-3.75l4.02-3.34V5.9h8.94v4.73l4.02,3.34V17.71z M5.65,15.91h13.36v-1.1L15,11.47V7.7H9.67
		v3.77l-4.02,3.34V15.91z"/>
</g>
<g>
</g>
<g>
</g>
<g>
</g>
<g>
</g>
<g>
</g>
<g>
</g>
</svg>
