<?xml version="1.0" encoding="utf-8"?>
<!-- Generator: Adobe Illustrator 27.5.0, SVG Export Plug-In . SVG Version: 6.00 Build 0)  -->
<svg version="1.1" id="Menu_x5F_heat-pump" xmlns="http://www.w3.org/2000/svg" xmlns:xlink="http://www.w3.org/1999/xlink" x="0px"
	 y="0px" viewBox="0 0 55 50" style="enable-background:new 0 0 55 50;" xml:space="preserve">
<style type="text/css">
	.st2{fill:none;}
	.st0{fill:#FFFFFF;}
</style>
<rect class="st2" width="55" height="50"/>
<g>
	<path class="st0" d="M3.93,7.58v34.84h47.13V7.58H3.93z M49.02,40.37H5.98V9.63h43.03V40.37z"/>
	<rect x="9.06" y="17.83" class="st0" width="8.2" height="2.05"/>
	<rect x="9.06" y="23.98" class="st0" width="8.2" height="2.05"/>
	<rect x="9.06" y="30.12" class="st0" width="8.2" height="2.05"/>
	<path class="st0" d="M33.65,38.32c7.34,0,13.32-5.98,13.32-13.32c0-7.34-5.98-13.32-13.32-13.32c-7.34,0-13.32,5.98-13.32,13.32
		C20.33,32.34,26.3,38.32,33.65,38.32z M33.65,13.73c6.21,0,11.27,5.06,11.27,11.27s-5.06,11.27-11.27,11.27S22.38,31.21,22.38,25
		S27.43,13.73,33.65,13.73z"/>
	<path class="st0" d="M29.97,26.77l-3.92,3.92l1.45,1.45l3.79-3.79c0.4,0.28,0.85,0.48,1.33,0.61v5.27h2.05v-5.27
		c0.27-0.07,0.53-0.17,0.77-0.29l3.47,3.47l1.45-1.45l-3.36-3.36c0.27-0.39,0.47-0.84,0.59-1.31h5.27v-2.05H37.6
		c-0.13-0.48-0.33-0.93-0.61-1.33l3.37-3.37l-1.45-1.45l-3.5,3.5c-0.24-0.12-0.49-0.21-0.75-0.28v-5.27h-2.05v5.27
		c-0.47,0.12-0.92,0.32-1.31,0.59l-3.81-3.81l-1.45,1.45l3.93,3.93c-0.12,0.25-0.22,0.5-0.29,0.77h-5.27v2.05h5.27
		C29.76,26.29,29.85,26.54,29.97,26.77z M33.65,22.95c1.13,0,2.05,0.92,2.05,2.05c0,1.13-0.92,2.05-2.05,2.05S31.6,26.13,31.6,25
		C31.6,23.87,32.52,22.95,33.65,22.95z"/>
</g>
<g>
</g>
<g>
</g>
<g>
</g>
<g>
</g>
<g>
</g>
<g>
</g>
</svg>
