<svg xmlns="http://www.w3.org/2000/svg" xmlns:xlink="http://www.w3.org/1999/xlink" version="1.1" x="0px" y="0px" viewBox="0 0 127.4 60" style="enable-background:new 0 0 127.4 60;" xml:space="preserve">
<style type="text/css">
	.rotate-svg__st0{fill:#FFFFFF;}
</style>
<g id="Ebene_1">
</g>
<g id="UI_3D">
</g>
<g id="Infopanel">
	<g>
		<g>
			<path class="rotate-svg__st0" d="M33.7,24.8c1.7,1.8,3.9,3.4,7.3,3.4c3.5,0,5.9-2.1,5.9-5.2c0-3.4-2.3-5.7-9.1-5.7v-2.8     c6.1,0,8.1-2.3,8.1-5.3c0-2.8-1.9-4.5-4.9-4.5c-2.4,0-4.4,1.2-6.1,2.9l-2-2.3c2.2-2.1,4.8-3.6,8.2-3.6c5,0,8.6,2.6,8.6,7.3     c0,3.5-2.1,5.7-5.2,6.8v0.2c3.5,0.8,6.2,3.3,6.2,7.3c0,5.1-4.2,8.2-9.4,8.2c-4.6,0-7.5-1.9-9.4-4L33.7,24.8z"/>
			<path class="rotate-svg__st0" d="M70.9,6.9c-1.2-1.4-2.9-2.2-4.7-2.2c-4,0-7.4,3.1-7.5,12.2c1.8-2.2,4.3-3.6,6.7-3.6c4.9,0,8.2,3,8.2,8.8     c0,5.5-3.9,9.2-8.5,9.2c-5.6,0-9.9-4.6-9.9-13.8C55.1,6,60.3,1.6,66,1.6c3.1,0,5.3,1.3,6.9,3L70.9,6.9z M70,22.1     c0-3.7-1.7-6.1-5.3-6.1c-1.8,0-4,1.1-6,3.8c0.4,5.6,2.6,8.6,6.3,8.6C67.8,28.3,70,25.8,70,22.1z"/>
			<path class="rotate-svg__st0" d="M77.2,16.3c0-9.6,3.5-14.8,9.2-14.8c5.7,0,9.1,5.2,9.1,14.8s-3.5,14.9-9.1,14.9     C80.7,31.3,77.2,25.9,77.2,16.3z M92,16.3c0-8.4-2.2-11.8-5.6-11.8c-3.4,0-5.6,3.4-5.6,11.8s2.2,12,5.6,12     C89.8,28.3,92,24.7,92,16.3z"/>
			<path class="rotate-svg__st0" d="M99.1,5.8c0-3.5,2.6-5.8,5.6-5.8c3,0,5.6,2.2,5.6,5.8c0,3.5-2.6,5.7-5.6,5.7C101.7,11.5,99.1,9.2,99.1,5.8z      M108.1,5.8c0-2.2-1.4-3.7-3.4-3.7c-2,0-3.4,1.5-3.4,3.7c0,2.1,1.4,3.6,3.4,3.6C106.7,9.4,108.1,7.9,108.1,5.8z"/>
		</g>
		<g>
			<path class="rotate-svg__st0" d="M48,41.5l7,6.8C21.3,47.2,3.3,40.5,3.3,35.9c0-2.6,6.5-6.5,21.1-9.3l-0.6-3.3C12.9,25.4,0,29.3,0,35.9     c0,9.7,28,14.8,55,15.7l-7.3,6.5l1.7,1.9l11.1-9.9L49.7,39.7L48,41.5z"/>
			<path class="rotate-svg__st0" d="M103.6,23.3l-0.6,3.3c14.6,2.8,21.1,6.7,21.1,9.3c0,4.7-18.6,11.6-53.5,12.5l-0.9,0l0,3.3l0.9,0     c27.3-0.7,56.8-5.9,56.8-15.8C127.4,29.3,114.5,25.4,103.6,23.3z"/>
		</g>
	</g>
</g>
</svg>