<?xml version="1.0" encoding="utf-8"?>
<!-- Generator: Adobe Illustrator 27.5.0, SVG Export Plug-In . SVG Version: 6.00 Build 0)  -->
<svg version="1.1" id="Info_x5F_point_x5F_Charger" xmlns="http://www.w3.org/2000/svg" xmlns:xlink="http://www.w3.org/1999/xlink"
	 x="0px" y="0px" viewBox="0 0 45 61.5" style="enable-background:new 0 0 45 61.5;" xml:space="preserve">
<style type="text/css">
	.st0{fill:#0A8276;}
	.st1{fill:#FFFFFF;}
</style>
<g>
	<path class="st0" d="M45,22.5C45,10.07,34.93,0,22.5,0C10.07,0,0,10.07,0,22.5c0,2.33,0.35,4.58,1.01,6.69
		c0.59,1.88,1.42,3.66,2.45,5.3l0,0l0.03,0.05c0.4,0.63,0.83,1.24,1.28,1.82L22.5,61.5l18.61-26.35h0C43.56,31.54,45,27.19,45,22.5z
		"/>
	<path class="st1" d="M35.54,20.23v-2.61h-5.22v2.61h-1.3v5.87h3.26v5.8c0,4.7-3.91,8.54-8.67,8.54h-0.85
		c-4.83,0-8.74-3.85-8.74-8.54v-5.8h4.57v-1.96h3.91v-2.61h2.61v-1.3H22.5v-2.61h2.61v-1.3H22.5v-2.61h-3.91v-1.96H8.15V26.1h4.57
		v5.8c0,5.41,4.5,9.85,9.98,9.85h0.85c5.54,0,10.04-4.43,10.04-9.85v-5.8h3.26v-5.87H35.54z M21.2,15.01v7.83h-2.61v-7.83H21.2z
		 M9.46,13.05h7.83v11.74H9.46V13.05z M31.63,18.92h2.61v1.3h-2.61V18.92z M35.54,24.79h-5.22v-3.26h5.22V24.79z"/>
</g>
</svg>
