<?xml version="1.0" encoding="utf-8"?>
<!-- Generator: Adobe Illustrator 27.0.0, SVG Export Plug-In . SVG Version: 6.00 Build 0)  -->
<svg version="1.1" id="Info_x5F_point_x5F_Heat-pump"
	 xmlns="http://www.w3.org/2000/svg" xmlns:xlink="http://www.w3.org/1999/xlink" x="0px" y="0px" viewBox="0 0 45 61.5"
	 style="enable-background:new 0 0 45 61.5;" xml:space="preserve">
<style type="text/css">
	.st18{fill:#053b35;}
	.st0{fill:#FFFFFF;}
</style>
<g>
	<path class="st18" d="M45,22.5C45,10.07,34.93,0,22.5,0C10.07,0,0,10.07,0,22.5c0,2.33,0.35,4.58,1.01,6.69
		c0.59,1.88,1.42,3.66,2.45,5.3l0,0l0.03,0.05c0.4,0.63,0.83,1.24,1.28,1.82L22.5,61.5l18.61-26.35h0C43.56,31.54,45,27.19,45,22.5z
		"/>
	<g>
		<path class="st0" d="M7.55,11.31v22.1h29.91v-22.1H7.55z M36.15,32.12H8.85v-19.5h27.31V32.12z"/>
		<rect x="10.8" y="17.82" class="st0" width="5.2" height="1.3"/>
		<rect x="10.8" y="21.72" class="st0" width="5.2" height="1.3"/>
		<rect x="10.8" y="25.62" class="st0" width="5.2" height="1.3"/>
		<path class="st0" d="M26.4,30.82c4.66,0,8.45-3.79,8.45-8.45c0-4.66-3.79-8.45-8.45-8.45c-4.66,0-8.45,3.79-8.45,8.45
			C17.95,27.03,21.74,30.82,26.4,30.82z M26.4,15.22c3.94,0,7.15,3.21,7.15,7.15s-3.21,7.15-7.15,7.15s-7.15-3.21-7.15-7.15
			S22.46,15.22,26.4,15.22z"/>
		<path class="st0" d="M24.07,23.49l-2.48,2.49l0.92,0.92l2.41-2.41c0.25,0.18,0.54,0.31,0.84,0.39v3.34h1.3v-3.34
			c0.17-0.04,0.33-0.11,0.49-0.18l2.2,2.2l0.92-0.92l-2.13-2.13c0.17-0.25,0.3-0.53,0.38-0.83h3.34v-1.3h-3.34
			c-0.08-0.31-0.21-0.59-0.38-0.84l2.14-2.14l-0.92-0.92l-2.22,2.22c-0.15-0.07-0.31-0.13-0.48-0.17v-3.34h-1.3v3.34
			c-0.3,0.08-0.58,0.2-0.83,0.38l-2.42-2.42l-0.92,0.92l2.49,2.49c-0.08,0.16-0.14,0.32-0.18,0.49h-3.34v1.3h3.34
			C23.94,23.18,23.99,23.34,24.07,23.49z M26.4,21.07c0.72,0,1.3,0.58,1.3,1.3c0,0.72-0.58,1.3-1.3,1.3c-0.72,0-1.3-0.58-1.3-1.3
			C25.1,21.65,25.68,21.07,26.4,21.07z"/>
	</g>
</g>
</svg>
