<?xml version="1.0" encoding="utf-8"?>
<!-- Generator: Adobe Illustrator 27.5.0, SVG Export Plug-In . SVG Version: 6.00 Build 0)  -->
<svg version="1.1" id="Info_x5F_point_x5F_Solar" xmlns="http://www.w3.org/2000/svg" xmlns:xlink="http://www.w3.org/1999/xlink"
	 x="0px" y="0px" viewBox="0 0 45 61.5" style="enable-background:new 0 0 45 61.5;" xml:space="preserve">
<style type="text/css">
	.st0{fill:#053b35;}
	.st1{fill:#FFFFFF;}
</style>
<g>
	<path class="st0" d="M45,22.5C45,10.07,34.93,0,22.5,0C10.07,0,0,10.07,0,22.5c0,2.33,0.35,4.58,1.01,6.69
		c0.59,1.88,1.42,3.66,2.45,5.3l0,0l0.03,0.05c0.4,0.63,0.83,1.24,1.28,1.82L22.5,61.5l18.61-26.35h0C43.56,31.54,45,27.19,45,22.5z
		"/>
	<g>
		<g>
			<polygon class="st1" points="26.45,27.33 25.41,27.33 25.41,31.99 18.15,31.99 18.15,33.03 33.71,33.03 33.71,31.99 26.45,31.99 
							"/>
			<path class="st1" d="M18.28,11.25l-4.46,15.04h20.28l3.9-15.04H18.28z M22.5,20.58l1.21-3.63h5.77l-1.08,3.63H22.5z M28.1,21.62
				l-1.08,3.63h-6.08l1.21-3.63H28.1z M21.41,20.58H16.6l1.08-3.63h4.94L21.41,20.58z M24.05,15.92l1.21-3.63h5.6l-1.08,3.63H24.05z
				 M30.56,16.95h4.9l-0.94,3.63h-5.03L30.56,16.95z M30.87,15.92l1.08-3.63h4.72l-0.94,3.63H30.87z M19.05,12.29h5.12l-1.21,3.63
				h-4.98L19.05,12.29z M16.29,21.62h4.77l-1.21,3.63h-4.64L16.29,21.62z M33.31,25.25h-5.2l1.08-3.63h5.07L33.31,25.25z"/>
		</g>
		<g>
			<polygon class="st1" points="9.87,18.33 9.87,19.37 14.79,19.37 15.1,18.33 			"/>
			<path class="st1" d="M16.1,27.33v5.23c0,0.36-0.34,0.65-0.76,0.65H8.79c-0.42,0-0.76-0.29-0.76-0.65V22.07
				c0-0.36,0.34-0.65,0.76-0.65h5.4l0.31-1.04H8.79c-0.99,0-1.8,0.76-1.8,1.69v10.49c0,0.93,0.81,1.69,1.8,1.69h6.56
				c0.99,0,1.8-0.76,1.8-1.69v-5.23H16.1z"/>
			<path class="st1" d="M14.03,27.33v0.88H10.1v-1.78h2.6l0.34-1.15H10.1v-1.78h3.47l0.31-1.04H9.07v9.72h6v-4.85H14.03z
				 M14.03,31.14H10.1v-1.78h3.92V31.14z"/>
		</g>
	</g>
</g>
</svg>
