<?xml version="1.0" encoding="utf-8"?>
<!-- Generator: Adobe Illustrator 27.5.0, SVG Export Plug-In . SVG Version: 6.00 Build 0)  -->
<svg version="1.1" id="Info_x5F_point_x5F_Smart-TV"
	 xmlns="http://www.w3.org/2000/svg" xmlns:xlink="http://www.w3.org/1999/xlink" x="0px" y="0px" viewBox="0 0 45 61.5"
	 style="enable-background:new 0 0 45 61.5;" xml:space="preserve">
<style type="text/css">
	.st0{fill:#0A8276;}
	.st1{fill:#FFFFFF;}
</style>
<g>
	<path class="st0" d="M45,22.5C45,10.07,34.93,0,22.5,0C10.07,0,0,10.07,0,22.5c0,2.33,0.35,4.58,1.01,6.69
		c0.59,1.88,1.42,3.66,2.45,5.3l0,0l0.03,0.05c0.4,0.63,0.83,1.24,1.28,1.82L22.5,61.5l18.61-26.35h0C43.56,31.54,45,27.19,45,22.5z
		"/>
	<g>
		<g>
			<path class="st1" d="M15.79,18.47h-6.1c-1.12,0-2.03,0.91-2.03,2.03v12.71c0,1.12,0.91,2.03,2.03,2.03h6.1
				c1.12,0,2.03-0.91,2.03-2.03V20.5C17.82,19.38,16.91,18.47,15.79,18.47z M16.81,33.22c0,0.56-0.46,1.02-1.02,1.02h-6.1
				c-0.56,0-1.02-0.46-1.02-1.02V20.5c0-0.56,0.46-1.02,1.02-1.02h6.1c0.56,0,1.02,0.46,1.02,1.02V33.22z"/>
			<rect x="12.23" y="23.05" class="st1" width="1.02" height="2.54"/>
			<path class="st1" d="M14.64,24.22L14,25.02c0.49,0.39,0.77,0.97,0.77,1.59c0,1.12-0.91,2.03-2.03,2.03s-2.03-0.91-2.03-2.03
				c0-0.62,0.28-1.2,0.77-1.59l-0.63-0.8c-0.73,0.58-1.16,1.45-1.15,2.39c0,1.68,1.37,3.05,3.05,3.05s3.05-1.37,3.05-3.05
				C15.79,25.67,15.37,24.8,14.64,24.22z"/>
		</g>
		<g>
			<polygon class="st1" points="26.16,30.08 25.14,30.08 25.14,31.6 20.06,31.6 20.06,32.62 31.24,32.62 31.24,31.6 26.16,31.6 			
				"/>
			
				<rect x="31.95" y="24.55" transform="matrix(0.7081 -0.7061 0.7061 0.7081 -7.9194 30.9505)" class="st1" width="3.05" height="1.02"/>
			
				<rect x="28.48" y="22.19" transform="matrix(0.7079 -0.7063 0.7063 0.7079 -6.8217 28.8946)" class="st1" width="6.09" height="1.02"/>
			<path class="st1" d="M14.97,17.43v-5.15c0-0.56,0.46-1.02,1.02-1.02h19.32c0.56,0,1.02,0.46,1.02,1.02v14.75
				c0,0.56-0.46,1.02-1.02,1.02H18.86v1.02h16.45c1.12,0,2.03-0.91,2.03-2.03V12.28c0-1.12-0.91-2.03-2.03-2.03H15.99
				c-1.12,0-2.03,0.91-2.03,2.03v5.15H14.97z"/>
		</g>
	</g>
</g>
</svg>
