<?xml version="1.0" encoding="utf-8"?>
<!-- Generator: Adobe Illustrator 27.0.0, SVG Export Plug-In . SVG Version: 6.00 Build 0)  -->
<svg version="1.1" id="Info_x5F_point_x5F_Smart-TV"
	 xmlns="http://www.w3.org/2000/svg" xmlns:xlink="http://www.w3.org/1999/xlink" x="0px" y="0px" viewBox="0 0 45 61.5"
	 style="enable-background:new 0 0 45 61.5;" xml:space="preserve">
<style type="text/css">
	.st0{fill:#0A8276;}
	.st1{fill:#FFFFFF;}
</style>
<g>
	<path class="st0" d="M45,22.5C45,10.07,34.93,0,22.5,0C10.07,0,0,10.07,0,22.5c0,2.33,0.35,4.58,1.01,6.69
		c0.59,1.88,1.42,3.66,2.45,5.3l0,0l0.03,0.05c0.4,0.63,0.83,1.24,1.28,1.82L22.5,61.5l18.61-26.35h0C43.56,31.54,45,27.19,45,22.5z
		"/>
	<g>
		<path class="st1" d="M35.6,19.66h-5.7c-1.05,0-1.9,0.85-1.9,1.9v11.89c0,1.05,0.85,1.9,1.9,1.9h5.7c1.05,0,1.9-0.85,1.9-1.9V21.56
			C37.5,20.52,36.65,19.66,35.6,19.66z M36.55,33.45c0,0.52-0.43,0.95-0.95,0.95h-5.7c-0.52,0-0.95-0.43-0.95-0.95V21.56
			c0-0.52,0.43-0.95,0.95-0.95h5.7c0.52,0,0.95,0.43,0.95,0.95V33.45z"/>
		<rect x="32.27" y="23.94" class="st1" width="0.95" height="2.38"/>
		<path class="st1" d="M34.52,25.04l-0.59,0.74c0.46,0.36,0.72,0.9,0.72,1.49c0,1.05-0.85,1.9-1.9,1.9c-1.05,0-1.9-0.85-1.9-1.9
			c0-0.58,0.26-1.12,0.72-1.48l-0.59-0.75c-0.69,0.54-1.08,1.36-1.08,2.23c0,1.57,1.28,2.85,2.85,2.85c1.57,0,2.85-1.28,2.85-2.85
			C35.6,26.4,35.21,25.58,34.52,25.04z"/>
		<path class="st1" d="M9.4,28.61c-0.52,0-0.95-0.43-0.95-0.95V13.88c0-0.52,0.43-0.95,0.95-0.95h24.8c0.52,0,0.95,0.43,0.95,0.95
			v4.82h0.95v-4.82c0-1.05-0.85-1.9-1.9-1.9H9.4c-1.05,0-1.9,0.85-1.9,1.9v13.79c0,1.05,0.85,1.9,1.9,1.9h17.46v-0.95H9.4z"/>
		<polygon class="st1" points="22.87,31.94 22.87,30.52 21.92,30.52 21.92,31.94 17.17,31.94 17.17,32.89 26.81,32.89 26.81,31.94 
					"/>
	</g>
</g>
</svg>
