<?xml version="1.0" encoding="utf-8"?>
<!-- Generator: Adobe Illustrator 27.0.0, SVG Export Plug-In . SVG Version: 6.00 Build 0)  -->
<svg version="1.1" id="Info_x5F_point_x5F_Moving" xmlns="http://www.w3.org/2000/svg" xmlns:xlink="http://www.w3.org/1999/xlink"
	 x="0px" y="0px" viewBox="0 0 45 61.5" style="enable-background:new 0 0 45 61.5;" xml:space="preserve">
<style type="text/css">
	.st0{fill:#0A8276;}
	.st1{fill:#FFFFFF;}
</style>
<g>
	<path class="st0" d="M45,22.5C45,10.07,34.93,0,22.5,0C10.07,0,0,10.07,0,22.5c0,2.33,0.35,4.58,1.01,6.69
		c0.59,1.88,1.42,3.66,2.45,5.3l0,0l0.03,0.05c0.4,0.63,0.83,1.24,1.28,1.82L22.5,61.5l18.61-26.35h0C43.56,31.54,45,27.19,45,22.5z
		"/>
	<g>
		<path class="st1" d="M33.57,17L14.2,14.65c-0.96-0.12-1.91,0.15-2.68,0.75c-0.78,0.62-1.28,1.51-1.39,2.51l0,1.29h1.33v-1.17
			c0.08-0.63,0.39-1.19,0.89-1.57c0.49-0.38,1.09-0.55,1.69-0.48l19.37,2.35c1.17,0.14,2.05,1.17,2.05,2.39v5.83l-16.67-0.01l0,1.33
			l18,0.01v-7.16C36.79,18.82,35.41,17.22,33.57,17z"/>
		<path class="st1" d="M12.12,20.4c-2.94,0-5.33,2.44-5.33,5.45s2.39,5.45,5.33,5.45s5.33-2.44,5.33-5.45S15.07,20.4,12.12,20.4z
			 M12.12,29.96c-2.21,0-4-1.85-4-4.11s1.79-4.11,4-4.11s4,1.85,4,4.11S14.33,29.96,12.12,29.96z"/>
		<rect x="24.12" y="29.28" class="st1" width="11.33" height="1.33"/>
	</g>
</g>
</svg>
