<?xml version="1.0" encoding="utf-8"?>
<!-- Generator: Adobe Illustrator 27.0.0, SVG Export Plug-In . SVG Version: 6.00 Build 0)  -->
<svg version="1.1" id="Info_x5F_point_x5F_Smart-licgting"
	 xmlns="http://www.w3.org/2000/svg" xmlns:xlink="http://www.w3.org/1999/xlink" x="0px" y="0px" viewBox="0 0 45 61.5"
	 style="enable-background:new 0 0 45 61.5;" xml:space="preserve">
<style type="text/css">
	.st0{fill:#0A8276;}
	.st1{fill:#FFFFFF;}
</style>
<g>
	<path class="st0" d="M45,22.5C45,10.07,34.93,0,22.5,0C10.07,0,0,10.07,0,22.5c0,2.33,0.35,4.58,1.01,6.69
		c0.59,1.88,1.42,3.66,2.45,5.3l0,0l0.03,0.05c0.4,0.63,0.83,1.24,1.28,1.82L22.5,61.5l18.61-26.35h0C43.56,31.54,45,27.19,45,22.5z
		"/>
	<g>
		<rect x="5.32" y="19.75" class="st1" width="2.61" height="1.3"/>
		
			<rect x="8.92" y="11.57" transform="matrix(0.7072 -0.707 0.707 0.7072 -6.3004 10.5381)" class="st1" width="1.3" height="2.61"/>
		<rect x="16.4" y="8.66" class="st1" width="1.3" height="2.61"/>
		
			<rect x="23.3" y="12.13" transform="matrix(0.7071 -0.7071 0.7071 0.7071 -1.8317 21.141)" class="st1" width="2.61" height="1.3"/>
		<path class="st1" d="M15.1,26.55l-0.43-0.15c-2.52-0.89-4.15-3.27-4.15-6.05c0-3.54,2.88-6.42,6.42-6.42c0,0,0,0,0.01,0
			c1.96,0,3.78,0.88,5,2.4l1.02-0.82c-1.47-1.84-3.67-2.89-6.02-2.89c0,0,0,0-0.01,0c-4.26,0-7.73,3.47-7.73,7.73
			c0,3.18,1.79,5.92,4.59,7.11v4.04h5.87v-1.3H15.1L15.1,26.55z"/>
		<rect x="13.8" y="32.79" class="st1" width="5.87" height="1.3"/>
		<path class="st1" d="M31.4,17.14h-7.83c-1.44,0-2.61,1.17-2.61,2.61v16.3c0,1.44,1.17,2.61,2.61,2.61h7.83
			c1.44,0,2.61-1.17,2.61-2.61v-16.3C34.01,18.31,32.84,17.14,31.4,17.14z M32.71,36.05c0,0.72-0.59,1.3-1.3,1.3h-7.83
			c-0.72,0-1.3-0.59-1.3-1.3v-16.3c0-0.72,0.59-1.3,1.3-1.3h7.83c0.72,0,1.3,0.58,1.3,1.3V36.05z"/>
		<rect x="26.84" y="23.01" class="st1" width="1.3" height="3.26"/>
		<path class="st1" d="M29.92,24.52l-0.81,1.02c0.63,0.5,0.99,1.24,0.99,2.04c0,1.44-1.17,2.61-2.61,2.61s-2.61-1.17-2.61-2.61
			c0-0.8,0.36-1.54,0.99-2.04l-0.81-1.02c-0.94,0.74-1.48,1.86-1.48,3.06c0,2.16,1.76,3.91,3.91,3.91s3.91-1.76,3.91-3.91
			C31.4,26.38,30.87,25.26,29.92,24.52z"/>
	</g>
</g>
</svg>
